
<group>
lokey=33
hikey=38
volume=6
ampeg_release=0.600

<region>
sample=release\db2_rel_rr1.wav
hirand=0.200
pitch_keycenter=37

<region>
sample=release\db2_rel_rr2.wav
lorand=0.200
hirand=0.400
pitch_keycenter=37

<region>
sample=release\db2_rel_rr3.wav
lorand=0.400
hirand=0.600
pitch_keycenter=37

<region>
sample=release\db2_rel_rr4.wav
lorand=0.600
hirand=0.800
pitch_keycenter=37

<region>
sample=release\db2_rel_rr5.wav
lorand=0.800
pitch_keycenter=37

//========================
<group>
lokey=39
hikey=40
volume=6
ampeg_release=0.600

<region>
sample=release\e2_rel_rr1.wav
hirand=0.200
pitch_keycenter=40

<region>
sample=release\e2_rel_rr2.wav
lorand=0.200
hirand=0.400
pitch_keycenter=40

<region>
sample=release\e2_rel_rr3.wav
lorand=0.400
hirand=0.600
pitch_keycenter=40

<region>
sample=release\e2_rel_rr4.wav
lorand=0.600
hirand=0.800
pitch_keycenter=40

<region>
sample=release\e2_rel_rr5.wav
lorand=0.800
pitch_keycenter=40

//========================
<group>
lokey=41
hikey=43
volume=6
ampeg_release=0.600

<region>
sample=release\gb2_rel_rr1.wav
hirand=0.200
pitch_keycenter=42

<region>
sample=release\gb2_rel_rr2.wav
lorand=0.200
hirand=0.400
pitch_keycenter=42

<region>
sample=release\gb2_rel_rr3.wav
lorand=0.400
hirand=0.600
pitch_keycenter=42

<region>
sample=release\gb2_rel_rr4.wav
lorand=0.600
hirand=0.800
pitch_keycenter=42

<region>
sample=release\gb2_rel_rr5.wav
lorand=0.800
pitch_keycenter=42

//========================
<group>
lokey=44
hikey=46
volume=6
ampeg_release=0.600

<region>
sample=release\a2_rel_rr1.wav
hirand=0.200
pitch_keycenter=45

<region>
sample=release\a2_rel_rr2.wav
lorand=0.200
hirand=0.400
pitch_keycenter=45

<region>
sample=release\a2_rel_rr3.wav
lorand=0.400
hirand=0.600
pitch_keycenter=45

<region>
sample=release\a2_rel_rr4.wav
lorand=0.600
hirand=0.800
pitch_keycenter=45

<region>
sample=release\a2_rel_rr5.wav
lorand=0.800
pitch_keycenter=45

//========================
<group>
lokey=47
hikey=49
volume=6
ampeg_release=0.600

<region>
sample=release\c3_rel_rr1.wav
hirand=0.200
pitch_keycenter=48

<region>
sample=release\c3_rel_rr2.wav
lorand=0.200
hirand=0.400
pitch_keycenter=48

<region>
sample=release\c3_rel_rr3.wav
lorand=0.400
hirand=0.600
pitch_keycenter=48

<region>
sample=release\c3_rel_rr4.wav
lorand=0.600
hirand=0.800
pitch_keycenter=48

<region>
sample=release\c3_rel_rr5.wav
lorand=0.800
pitch_keycenter=47

//========================
<group>
lokey=50
hikey=52
volume=6
ampeg_release=0.600

<region>
sample=release\eb3_rel_rr1.wav
hirand=0.200
pitch_keycenter=51

<region>
sample=release\eb3_rel_rr2.wav
lorand=0.200
hirand=0.400
pitch_keycenter=51

<region>
sample=release\eb3_rel_rr3.wav
lorand=0.400
hirand=0.600
pitch_keycenter=51

<region>
sample=release\eb3_rel_rr4.wav
lorand=0.600
hirand=0.800
pitch_keycenter=51

<region>
sample=release\eb3_rel_rr5.wav
lorand=0.800
pitch_keycenter=51

//========================
<group>
lokey=53
hikey=55
volume=6
ampeg_release=0.600

<region>
sample=release\gb3_rel_rr1.wav
hirand=0.200
pitch_keycenter=54

<region>
sample=release\gb3_rel_rr2.wav
lorand=0.200
hirand=0.400
pitch_keycenter=54

<region>
sample=release\gb3_rel_rr3.wav
lorand=0.400
hirand=0.600
pitch_keycenter=54

<region>
sample=release\gb3_rel_rr4.wav
lorand=0.600
hirand=0.800
pitch_keycenter=54

<region>
sample=release\gb3_rel_rr5.wav
lorand=0.800
pitch_keycenter=54

//========================
<group>
lokey=56
hikey=58
volume=6
ampeg_release=0.600

<region>
sample=release\a3_rel_rr1.wav
hirand=0.200
pitch_keycenter=57

<region>
sample=release\a3_rel_rr2.wav
lorand=0.200
hirand=0.400
pitch_keycenter=57

<region>
sample=release\a3_rel_rr3.wav
lorand=0.400
hirand=0.600
pitch_keycenter=57

<region>
sample=release\a3_rel_rr4.wav
lorand=0.600
hirand=0.800
pitch_keycenter=57

<region>
sample=release\a3_rel_rr5.wav
lorand=0.800
pitch_keycenter=57

//========================
<group>
lokey=59
hikey=61
volume=6
ampeg_release=0.600

<region>
sample=release\c4_rel_rr1.wav
hirand=0.200

<region>
sample=release\c4_rel_rr2.wav
lorand=0.200
hirand=0.400

<region>
sample=release\c4_rel_rr3.wav
lorand=0.400
hirand=0.600

<region>
sample=release\c4_rel_rr4.wav
lorand=0.600
hirand=0.800

<region>
sample=release\c4_rel_rr5.wav
lorand=0.800

//========================
<group>
lokey=62
hikey=64
volume=6
ampeg_release=0.600

<region>
sample=release\eb4_rel_rr1.wav
hirand=0.200
pitch_keycenter=63

<region>
sample=release\eb4_rel_rr2.wav
lorand=0.200
hirand=0.400
pitch_keycenter=63

<region>
sample=release\eb4_rel_rr3.wav
lorand=0.400
hirand=0.600
pitch_keycenter=63

<region>
sample=release\eb4_rel_rr4.wav
lorand=0.600
hirand=0.800
pitch_keycenter=63

<region>
sample=release\eb4_rel_rr5.wav
lorand=0.800
pitch_keycenter=63

//========================
<group>
lokey=65
hikey=67
volume=6
ampeg_release=0.600

<region>
sample=release\gb4_rel_rr1.wav
hirand=0.200
pitch_keycenter=66

<region>
sample=release\gb4_rel_rr2.wav
lorand=0.200
hirand=0.400
pitch_keycenter=66

<region>
sample=release\gb4_rel_rr3.wav
lorand=0.400
hirand=0.600
pitch_keycenter=66

<region>
sample=release\gb4_rel_rr4.wav
lorand=0.600
hirand=0.800
pitch_keycenter=66

<region>
sample=release\gb4_rel_rr5.wav
lorand=0.800
pitch_keycenter=66

//========================
<group>
lokey=68
hikey=70
volume=6
ampeg_release=0.600

<region>
sample=release\a4_rel_rr1.wav
hirand=0.200
pitch_keycenter=69

<region>
sample=release\a4_rel_rr2.wav
lorand=0.200
hirand=0.400
pitch_keycenter=69

<region>
sample=release\a4_rel_rr3.wav
lorand=0.400
hirand=0.600
pitch_keycenter=69

<region>
sample=release\a4_rel_rr4.wav
lorand=0.600
hirand=0.800
pitch_keycenter=69

<region>
sample=release\a4_rel_rr5.wav
lorand=0.800
pitch_keycenter=69

//========================
<group>
lokey=71
hikey=73
volume=6
ampeg_release=0.600

<region>
sample=release\c5_rel_rr1.wav
hirand=0.200
pitch_keycenter=72

<region>
sample=release\c5_rel_rr2.wav
lorand=0.200
hirand=0.400
pitch_keycenter=72

<region>
sample=release\c5_rel_rr3.wav
lorand=0.400
hirand=0.600
pitch_keycenter=72

<region>
sample=release\c5_rel_rr4.wav
lorand=0.600
hirand=0.800
pitch_keycenter=72

<region>
sample=release\c5_rel_rr5.wav
lorand=0.800
pitch_keycenter=72

//========================
<group>
lokey=74
hikey=79
volume=6
ampeg_release=0.600

<region>
sample=release\eb5_rel_rr1.wav
hirand=0.200
pitch_keycenter=75

<region>
sample=release\eb5_rel_rr2.wav
lorand=0.200
hirand=0.400
pitch_keycenter=75

<region>
sample=release\eb5_rel_rr3.wav
lorand=0.400
hirand=0.600
pitch_keycenter=75

<region>
sample=release\eb5_rel_rr4.wav
lorand=0.600
hirand=0.800
pitch_keycenter=75

<region>
sample=release\eb5_rel_rr5.wav
lorand=0.800
pitch_keycenter=75

//========================
<group>
lokey=81
hikey=81
ampeg_release=0.300

<region>
sample=scrape\scrape_1_rr1.wav
hirand=0.250
pitch_keycenter=81

<region>
sample=scrape\scrape_1_rr2.wav
lorand=0.250
hirand=0.500
pitch_keycenter=81

<region>
sample=scrape\scrape_1_rr3.wav
lorand=0.500
hirand=0.750
pitch_keycenter=81

<region>
sample=scrape\scrape_1_rr4.wav
lorand=0.750
pitch_keycenter=81

//========================
<group>
lokey=82
hikey=82
ampeg_release=0.300

<region>
sample=scrape\scrape_2_rr1.wav
hirand=0.250
pitch_keycenter=82

<region>
sample=scrape\scrape_2_rr2.wav
lorand=0.250
hirand=0.500
pitch_keycenter=82

<region>
sample=scrape\scrape_2_rr3.wav
lorand=0.500
hirand=0.750
pitch_keycenter=82

<region>
sample=scrape\scrape_2_rr4.wav
lorand=0.750
pitch_keycenter=82

//========================
<group>
lokey=83
hikey=83
ampeg_release=0.300

<region>
sample=scrape\scrape_3_rr1.wav
hirand=0.250
pitch_keycenter=83

<region>
sample=scrape\scrape_3_rr2.wav
lorand=0.250
hirand=0.500
pitch_keycenter=83

<region>
sample=scrape\scrape_3_rr3.wav
lorand=0.500
hirand=0.750
pitch_keycenter=83

<region>
sample=scrape\scrape_3_rr4.wav
lorand=0.750
pitch_keycenter=83

//========================
<group>
lokey=84
hikey=84
ampeg_release=0.300

<region>
sample=scrape\scrape_4_rr1.wav
hirand=0.250
pitch_keycenter=84

<region>
sample=scrape\scrape_4_rr2.wav
lorand=0.250
hirand=0.500
pitch_keycenter=84

<region>
sample=scrape\scrape_4_rr3.wav
lorand=0.500
hirand=0.750
pitch_keycenter=84

<region>
sample=scrape\scrape_4_rr4.wav
lorand=0.750
pitch_keycenter=84
